<svg xmlns="http://www.w3.org/2000/svg" width="262" height="19" fill="none" xmlns:v="https://vecta.io/nano"><path d="M1.28 18c-.176 0-.32-.056-.432-.168S.68 17.576.68 17.4V1.8c0-.176.056-.32.168-.432s.256-.168.432-.168h2.544c.272 0 .464.064.576.192.128.112.208.2.24.264l5.856 9.24V1.8c0-.176.056-.32.168-.432s.256-.168.432-.168h2.88c.176 0 .32.056.432.168s.168.256.168.432v15.6a.64.64 0 0 1-.168.432c-.112.112-.256.168-.432.168h-2.568c-.256 0-.448-.064-.576-.192l-.216-.264-5.856-8.88V17.4c0 .176-.056.32-.168.432S4.336 18 4.16 18H1.28zm15.69 0c-.128 0-.248-.048-.36-.144-.096-.112-.144-.232-.144-.36a.89.89 0 0 1 .024-.216l5.64-15.408c.048-.176.144-.328.288-.456.16-.144.376-.216.648-.216h3.552c.272 0 .48.072.624.216.16.128.264.28.312.456L33.17 17.28c.032.064.048.136.048.216 0 .128-.056.248-.168.36a.49.49 0 0 1-.36.144h-2.952c-.24 0-.424-.056-.552-.168-.112-.128-.184-.24-.216-.336l-.936-2.448h-6.408l-.912 2.448c-.032.096-.104.208-.216.336-.112.112-.304.168-.576.168H16.97zm5.64-6.408h4.464l-2.256-6.336-2.208 6.336zM35.71 18a.64.64 0 0 1-.432-.168c-.112-.112-.168-.256-.168-.432V1.8c0-.176.056-.32.168-.432a.64.64 0 0 1 .432-.168h2.592c.256 0 .448.072.576.216.144.128.232.232.264.312l4.224 7.584 4.224-7.584a2.36 2.36 0 0 1 .24-.312c.128-.144.328-.216.6-.216h2.568c.176 0 .32.056.432.168.128.112.192.256.192.432v15.6c0 .176-.064.32-.192.432-.112.112-.256.168-.432.168h-2.856a.67.67 0 0 1-.456-.168c-.112-.112-.168-.256-.168-.432v-9l-2.712 5.016c-.064.144-.16.272-.288.384s-.304.168-.528.168h-1.248c-.224 0-.4-.056-.528-.168a1.43 1.43 0 0 1-.312-.384L39.19 8.4v9c0 .176-.056.32-.168.432s-.256.168-.432.168h-2.88zm18.292 0c-.128 0-.248-.048-.36-.144-.096-.112-.144-.232-.144-.36a.89.89 0 0 1 .024-.216l5.64-15.408a.93.93 0 0 1 .288-.456c.16-.144.376-.216.648-.216h3.552c.272 0 .48.072.624.216.16.128.264.28.312.456l5.616 15.408c.032.064.048.136.048.216 0 .128-.056.248-.168.36a.49.49 0 0 1-.36.144h-2.952c-.24 0-.424-.056-.552-.168-.112-.128-.184-.24-.216-.336l-.936-2.448h-6.408l-.912 2.448c-.032.096-.104.208-.216.336-.112.112-.304.168-.576.168h-2.952zm5.64-6.408h4.464l-2.256-6.336-2.208 6.336zM72.741 18c-.176 0-.32-.056-.432-.168s-.168-.256-.168-.432V1.8c0-.176.056-.32.168-.432s.256-.168.432-.168h2.544c.272 0 .464.064.576.192.128.112.208.2.24.264l5.856 9.24V1.8c0-.176.056-.32.168-.432s.256-.168.432-.168h2.88c.176 0 .32.056.432.168s.168.256.168.432v15.6a.64.64 0 0 1-.168.432c-.112.112-.256.168-.432.168h-2.568c-.256 0-.448-.064-.576-.192l-.216-.264-5.856-8.88V17.4c0 .176-.056.32-.168.432s-.256.168-.432.168h-2.88zm23.586.24c-1.52 0-2.832-.248-3.936-.744-1.088-.512-1.936-1.248-2.544-2.208-.592-.976-.92-2.16-.984-3.552l-.024-2.184.024-2.232c.064-1.36.4-2.512 1.008-3.456s1.464-1.664 2.568-2.16 2.4-.744 3.888-.744c1.2 0 2.264.152 3.192.456.928.288 1.704.68 2.328 1.176.64.496 1.12 1.04 1.44 1.632.336.592.512 1.176.528 1.752a.39.39 0 0 1-.144.36.49.49 0 0 1-.36.144h-3.504c-.176 0-.312-.024-.408-.072a.91.91 0 0 1-.216-.264c-.112-.24-.28-.488-.504-.744-.208-.272-.504-.504-.888-.696-.368-.192-.856-.288-1.464-.288-.912 0-1.632.24-2.16.72-.512.48-.792 1.248-.84 2.304v4.176c.048 1.12.344 1.928.888 2.424s1.264.744 2.16.744c.608 0 1.144-.104 1.608-.312a2.45 2.45 0 0 0 1.128-.96c.272-.448.408-1.016.408-1.704v-.456h-2.256a.67.67 0 0 1-.456-.168.67.67 0 0 1-.168-.456V8.952c0-.176.056-.32.168-.432.128-.128.28-.192.456-.192h6.048c.176 0 .32.064.432.192.112.112.168.256.168.432v2.736c0 1.376-.312 2.552-.936 3.528s-1.512 1.728-2.664 2.256c-1.136.512-2.464.768-3.984.768zm9.002-.24c-.128 0-.248-.048-.36-.144-.096-.112-.144-.232-.144-.36a.89.89 0 0 1 .024-.216l5.64-15.408c.048-.176.144-.328.288-.456.16-.144.376-.216.648-.216h3.552c.272 0 .48.072.624.216.16.128.264.28.312.456l5.616 15.408c.032.064.048.136.048.216 0 .128-.056.248-.168.36a.49.49 0 0 1-.36.144h-2.952c-.24 0-.424-.056-.552-.168-.112-.128-.184-.24-.216-.336l-.936-2.448h-6.408l-.912 2.448c-.032.096-.104.208-.216.336-.112.112-.304.168-.576.168h-2.952zm5.64-6.408h4.464l-2.256-6.336-2.208 6.336zm13.1 6.408c-.176 0-.32-.056-.432-.168s-.168-.256-.168-.432V1.8c0-.176.056-.32.168-.432s.256-.168.432-.168h2.544c.272 0 .464.064.576.192.128.112.208.2.24.264l5.856 9.24V1.8c0-.176.056-.32.168-.432s.256-.168.432-.168h2.88c.176 0 .32.056.432.168s.168.256.168.432v15.6a.64.64 0 0 1-.168.432c-.112.112-.256.168-.432.168h-2.568c-.256 0-.448-.064-.576-.192l-.216-.264-5.856-8.88V17.4c0 .176-.056.32-.168.432s-.256.168-.432.168h-2.88zm17.25 0c-.176 0-.32-.056-.432-.168s-.168-.256-.168-.432V1.8c0-.176.056-.32.168-.432s.256-.168.432-.168h3.168c.16 0 .296.056.408.168.128.112.192.256.192.432v12.576h7.248c.176 0 .32.064.432.192.128.112.192.256.192.432v2.4c0 .176-.064.32-.192.432-.112.112-.256.168-.432.168h-11.016zm14.32 0c-.176 0-.32-.056-.432-.168s-.168-.256-.168-.432V1.8c0-.176.056-.32.168-.432s.256-.168.432-.168h3.216c.176 0 .32.056.432.168s.168.256.168.432v15.6c0 .176-.056.32-.168.432s-.256.168-.432.168h-3.216zm7.782 0c-.176 0-.32-.056-.432-.168s-.168-.256-.168-.432V1.8c0-.176.056-.32.168-.432s.256-.168.432-.168h3.024c.176 0 .32.056.432.168s.168.256.168.432v5.328l4.44-5.472c.064-.096.168-.192.312-.288.16-.112.368-.168.624-.168h3.456c.144 0 .264.056.36.168a.46.46 0 0 1 .144.336c0 .112-.032.208-.096.288l-5.736 7.248 6.192 7.968c.064.064.096.16.096.288s-.056.248-.168.36a.46.46 0 0 1-.336.144h-3.576c-.288 0-.512-.064-.672-.192-.144-.128-.24-.224-.288-.288l-4.752-5.928V17.4c0 .176-.056.32-.168.432s-.256.168-.432.168h-3.024zm15.89 0c-.176 0-.32-.056-.432-.168s-.168-.256-.168-.432V1.8c0-.176.056-.32.168-.432s.256-.168.432-.168h3.168c.16 0 .296.056.408.168.128.112.192.256.192.432v12.576h7.248c.176 0 .32.064.432.192.128.112.192.256.192.432v2.4c0 .176-.064.32-.192.432-.112.112-.256.168-.432.168h-11.016zm12.761 0c-.128 0-.248-.048-.36-.144-.096-.112-.144-.232-.144-.36a.89.89 0 0 1 .024-.216l5.64-15.408c.048-.176.144-.328.288-.456.16-.144.376-.216.648-.216h3.552c.272 0 .48.072.624.216.16.128.264.28.312.456l5.616 15.408c.032.064.048.136.048.216 0 .128-.056.248-.168.36a.49.49 0 0 1-.36.144h-2.952c-.24 0-.424-.056-.552-.168-.112-.128-.184-.24-.216-.336l-.936-2.448h-6.408l-.912 2.448c-.032.096-.104.208-.216.336-.112.112-.304.168-.576.168h-2.952zm5.64-6.408h4.464l-2.256-6.336-2.208 6.336zM210.811 18c-.176 0-.32-.056-.432-.168s-.168-.256-.168-.432V1.8c0-.176.056-.32.168-.432s.256-.168.432-.168h6.528c2.064 0 3.688.48 4.872 1.44 1.2.944 1.8 2.288 1.8 4.032 0 1.136-.28 2.096-.84 2.88-.544.784-1.264 1.376-2.16 1.776l3.312 5.904c.048.096.072.184.072.264 0 .128-.056.248-.168.36a.49.49 0 0 1-.36.144h-3.168c-.304 0-.528-.072-.672-.216a2.04 2.04 0 0 1-.312-.432l-2.736-5.28h-2.472V17.4c0 .176-.056.32-.168.432s-.256.168-.432.168h-3.096zm3.696-9.312h2.784c.752 0 1.312-.184 1.68-.552.384-.368.576-.872.576-1.512 0-.624-.184-1.128-.552-1.512-.352-.384-.92-.576-1.704-.576h-2.784v4.152zM231.842 18a.67.67 0 0 1-.456-.168c-.112-.112-.168-.256-.168-.432v-1.704c0-.112.032-.28.096-.504.064-.24.232-.464.504-.672l2.496-2.448 3.144-2.472c.832-.688 1.448-1.296 1.848-1.824s.6-1.024.6-1.488c0-.544-.144-.992-.432-1.344-.272-.368-.752-.552-1.44-.552-.464 0-.856.104-1.176.312-.304.192-.536.448-.696.768a3.77 3.77 0 0 0-.336.984c-.064.208-.176.352-.336.432a.97.97 0 0 1-.48.12h-3a.49.49 0 0 1-.504-.504 5.46 5.46 0 0 1 .48-2.16 5.72 5.72 0 0 1 1.32-1.776c.576-.528 1.256-.936 2.04-1.224.8-.288 1.696-.432 2.688-.432 1.36 0 2.512.216 3.456.648.96.432 1.688 1.04 2.184 1.824.496.768.744 1.672.744 2.712a4.78 4.78 0 0 1-.528 2.208c-.336.672-.824 1.32-1.464 1.944-.624.608-1.368 1.24-2.232 1.896l-2.208 2.232h6.168c.176 0 .32.056.432.168.128.112.192.256.192.432V17.4c0 .176-.064.32-.192.432-.112.112-.256.168-.432.168h-12.312zm23.244 0a.64.64 0 0 1-.432-.168c-.112-.112-.168-.256-.168-.432v-2.712h-7.464a.64.64 0 0 1-.432-.168c-.112-.112-.168-.256-.168-.432v-2.28c0-.144.024-.272.072-.384l.192-.36 6.984-9.456c.208-.272.504-.408.888-.408h3.48c.176 0 .32.056.432.168.128.112.192.256.192.432v9.312h2.112c.192 0 .344.064.456.192.112.112.168.248.168.408v2.376c0 .176-.064.32-.192.432-.112.112-.248.168-.408.168h-2.136V17.4c0 .176-.064.32-.192.432-.112.112-.256.168-.432.168h-2.952zm-4.536-6.72h4.032V5.616l-4.032 5.664z" fill="#7296ee"/></svg>